<svg width="24" height="24" viewBox="0 0 24 24" fill="none" xmlns="http://www.w3.org/2000/svg">
<circle cx="12" cy="12" r="9.5" stroke="#000000" stroke-width="1.5"/>
<path d="M12.5 7.5V8.5C13.5 8.7 14.3 9.3 14.5 10" stroke="#000000" stroke-width="1.5" stroke-linecap="round"/>
<path d="M11.5 16.5V15.5C10.5 15.3 9.7 14.7 9.5 14" stroke="#000000" stroke-width="1.5" stroke-linecap="round"/>
<path d="M14.5 10C14.5 9 13.5 8.5 12 8.5C10.5 8.5 9.5 9.2 9.5 10.2C9.5 11.2 10.5 11.7 12 12C13.5 12.3 14.5 12.8 14.5 13.8C14.5 14.8 13.5 15.5 12 15.5C10.5 15.5 9.5 15 9.5 14" stroke="#000000" stroke-width="1.5" stroke-linecap="round"/>
</svg>
