<svg width="24" height="24" viewBox="0 0 24 24" fill="none" xmlns="http://www.w3.org/2000/svg">
<path d="M13 2C10.2386 2 8 4.23858 8 7C8 7.55228 8.44772 8 9 8C9.55228 8 10 7.55228 10 7C10 5.34315 11.3431 4 13 4H17C18.6569 4 20 5.34315 20 7V17C20 18.6569 18.6569 20 17 20H13C11.3431 20 10 18.6569 10 17C10 16.4477 9.55228 16 9 16C8.44772 16 8 16.4477 8 17C8 19.7614 10.2386 22 13 22H17C19.7614 22 22 19.7614 22 17V7C22 4.23858 19.7614 2 17 2H13Z" fill="#000000"/>
<path d="M14 12C14 11.4477 13.5523 11 13 11H5.71783C5.80685 10.8902 5.89214 10.7837 5.97282 10.682C6.21831 10.3723 6.42615 10.1004 6.57291 9.90549L6.80842 9.58848C7.13304 9.14167 7.0345 8.51561 6.58769 8.19098C6.14091 7.86637 5.51558 7.9654 5.19094 8.41215L5.18812 8.41602L5.13612 8.48679C5.09918 8.53682 5.04456 8.61033 4.97516 8.7025C4.83623 8.88702 4.63874 9.14542 4.40567 9.43937C3.93443 10.0337 3.33759 10.7481 2.79289 11.2929L2.08579 12L2.79289 12.7071C3.33759 13.2519 3.93443 13.9663 4.40567 14.5606C4.63874 14.8546 4.83623 15.113 4.97516 15.2975C5.04456 15.3897 5.09918 15.4632 5.13612 15.5132L5.19094 15.5878C5.51509 16.0339 6.14091 16.1336 6.58769 15.809C7.0345 15.4844 7.13355 14.859 6.80892 14.4122L6.57291 14.0945C6.42615 13.8996 6.21831 13.6277 5.97282 13.318C5.89214 13.2163 5.80685 13.1098 5.71783 13H13C13.5523 13 14 12.5523 14 12Z" fill="#000000"/>
</svg>
